<svg width="216" height="35" viewBox="0 0 216 35" fill="none" xmlns="http://www.w3.org/2000/svg">
<path d="M8.64 -0.00195312H36V26.598C36 31.2373 32.1318 34.998 27.36 34.998H0V8.39805C0 3.7588 3.8682 -0.00195312 8.64 -0.00195312Z" fill="#0C72DF"/>
<path fill-rule="evenodd" clip-rule="evenodd" d="M11.4849 12.5465C11.4986 12.5502 11.5119 12.5555 11.5245 12.5624L17.4992 14.8807L23.4756 12.5614C23.4883 12.555 23.5016 12.55 23.5153 12.5465L26.8852 11.2379L17.4992 7.59502L8.11521 11.2379L9.5053 11.7779L17.556 10.8548C17.6323 10.8464 17.7086 10.8693 17.7685 10.9186C17.8284 10.9679 17.8669 11.0396 17.8756 11.118C17.8838 11.1965 17.8615 11.2752 17.8136 11.3368C17.7656 11.3985 17.6959 11.4381 17.6196 11.447L10.6962 12.2413L11.4849 12.5465ZM6.05851 20.252C6.06466 20.2435 6.06927 20.2346 6.07664 20.2261L8.08049 17.2519C8.20074 17.0717 8.37593 16.9378 8.57837 16.8714C8.77484 16.8082 8.98597 16.8125 9.17983 16.8837V12.2859L7.84261 11.7668C7.73796 11.7265 7.64779 11.6543 7.58422 11.5597C7.52065 11.4652 7.48673 11.3529 7.48702 11.2379C7.48685 11.1231 7.52083 11.011 7.5844 10.9167C7.64797 10.8223 7.73808 10.7503 7.84261 10.7102L17.3077 7.03701C17.3694 7.01282 17.4349 7.00029 17.501 7C17.5655 7 17.6292 7.01265 17.694 7.03701L27.1591 10.7102C27.2636 10.7503 27.3536 10.8224 27.4171 10.9167C27.4806 11.011 27.5146 11.1231 27.5144 11.2379C27.5144 11.3552 27.4796 11.4666 27.4172 11.5593C27.3535 11.6537 27.2635 11.726 27.1591 11.7668L23.8866 13.0372V16.8932C23.8869 17.0061 23.8543 17.1164 23.7929 17.2099C23.7315 17.3034 23.6442 17.3757 23.5423 17.4174C21.7727 18.1525 19.6355 18.5207 17.5001 18.5207V18.522C15.3665 18.522 13.2284 18.1538 11.4578 17.4174C11.3557 17.376 11.2682 17.3039 11.2067 17.2104C11.1451 17.1169 11.1125 17.0065 11.113 16.8935V13.0372L9.75763 12.5108V17.1185C11.1225 17.698 12.4072 18.4493 13.5585 19.2784C15.0337 20.3422 16.2886 21.5357 17.2106 22.6678C17.2478 22.7134 17.2911 22.7491 17.339 22.7716V22.7729C17.3857 22.795 17.4386 22.8061 17.4998 22.8061C17.5539 22.8061 17.603 22.7975 17.6451 22.7801L17.6605 22.7729C17.7105 22.7487 17.7545 22.7132 17.7893 22.6691C18.7101 21.536 19.9658 20.3422 21.4414 19.2796C22.7488 18.3366 24.2289 17.4977 25.8025 16.8935C26.0008 16.8162 26.2185 16.8092 26.4212 16.8736C26.6179 16.9369 26.7943 17.0675 26.9191 17.2542L28.9229 20.2283L28.941 20.2542L30.0754 21.9371C30.1042 21.9827 30.1425 22.0211 30.1876 22.0493C30.2328 22.0776 30.2835 22.095 30.336 22.1003C30.4381 22.0991 30.5389 22.0981 30.6397 22.0981L30.6578 22.0991L30.7082 22.0981C30.7574 22.0975 30.8059 22.1098 30.8491 22.134C30.8923 22.1581 30.9288 22.1932 30.9552 22.2359C30.9815 22.2786 30.9968 22.3276 30.9995 22.3781C31.0023 22.4286 30.9925 22.479 30.971 22.5245C30.7897 22.906 30.4414 23.4349 30.1332 23.9047C30.0066 24.0951 29.8821 24.287 29.7598 24.4804C29.6988 24.5797 29.6102 24.6579 29.5056 24.7048C29.4009 24.7518 29.285 24.7653 29.1728 24.7436C24.9985 23.9638 21.7582 25.5863 19.6766 26.628C18.7377 27.0974 18.0232 27.4545 17.5001 27.4545C16.9776 27.4545 16.2621 27.0961 15.3235 26.628C13.2416 25.5863 10.0004 23.9651 5.82616 24.7436C5.71412 24.7659 5.59812 24.7527 5.49352 24.7057C5.38893 24.6587 5.30065 24.5802 5.24038 24.4804C5.11782 24.2872 4.99335 24.0953 4.86696 23.9047C4.55963 23.4375 4.2151 22.9124 4.03254 22.5305C4.00948 22.485 3.99834 22.4341 4.0002 22.3828C4.00206 22.3315 4.01687 22.2816 4.04317 22.2379C4.06947 22.1943 4.10634 22.1585 4.15018 22.1339C4.19401 22.1094 4.24329 22.0971 4.29316 22.0981L4.34357 22.0991L4.36139 22.0981C4.46343 22.0981 4.56424 22.0991 4.66504 22.1003C4.71084 22.0956 4.75294 22.0833 4.7889 22.0633C4.84053 22.0361 4.88725 21.9931 4.92566 21.9374L6.05851 20.252ZM6.80411 20.1888C6.96485 20.2172 7.1305 20.2495 7.29893 20.2843C7.53535 20.3335 7.77101 20.3865 8.0058 20.4434L8.31068 19.1708C8.20496 19.136 8.10169 19.1028 8.00088 19.0721C7.86873 19.031 7.74641 18.994 7.63116 18.9595L6.80411 20.1888ZM8.504 20.8426C8.50254 20.8543 8.50049 20.8659 8.49785 20.8774L8.49693 20.8837C8.47173 21.0169 8.46435 21.1181 8.47388 21.1874H10.4624C10.474 21.1096 10.4633 20.9897 10.4298 20.829L10.4273 20.8205L10.1716 19.7529C10.1679 19.7402 10.1642 19.7294 10.163 19.7171L10.0634 19.2996C9.88687 19.4185 9.68035 19.4816 9.46934 19.4811C9.25821 19.4815 9.05159 19.4183 8.87495 19.2992L8.51014 20.8217L8.504 20.8426ZM7.89762 21.0292C7.6611 20.9696 7.42337 20.9152 7.1846 20.866C6.93713 20.8144 6.68853 20.7687 6.439 20.729L5.49547 22.1313C7.32628 22.2376 9.13435 22.5862 10.8809 23.1041C13.2327 23.8022 15.472 24.8091 17.4995 25.9545C19.5273 24.8094 21.765 23.8022 24.118 23.1041C25.8646 22.585 27.6739 22.2376 29.5035 22.1313L28.5599 20.73C26.8886 20.9982 24.9933 21.5828 23.0915 22.4255C21.2198 23.2546 19.3469 24.3333 17.6771 25.6062C17.6273 25.6462 17.5661 25.6682 17.503 25.6689C17.4399 25.6696 17.3783 25.6489 17.3277 25.61C16.2747 24.8065 15.1391 24.0803 13.9746 23.4451C12.7987 22.8027 11.5799 22.2473 10.3274 21.7831H8.40534C8.38719 21.7832 8.36907 21.7815 8.35125 21.778C8.12198 21.7448 7.97783 21.6028 7.9179 21.3541C7.89512 21.2475 7.88828 21.138 7.89762 21.0292ZM11.0048 21.406C12.114 21.8417 13.196 22.3473 14.2448 22.92C15.3708 23.5339 16.4708 24.2321 17.4995 25.0046C19.1658 23.7563 21.0169 22.6973 22.8625 21.8792C24.7038 21.0628 26.5444 20.4829 28.1951 20.19L27.3681 18.9633C25.7149 19.4463 23.8696 20.1903 22.0736 21.2567C20.5307 22.1721 19.0254 23.3252 17.7072 24.755C17.6544 24.812 17.5818 24.8451 17.5054 24.8472C17.4289 24.8493 17.3547 24.8201 17.2991 24.7661L17.2883 24.755C16.3279 23.7133 15.2676 22.8187 14.1658 22.0564C13.1195 21.3358 12.0154 20.7082 10.8656 20.1805L10.9854 20.6822C10.9879 20.6908 10.9891 20.6996 10.9904 20.7082C11.0466 20.9786 11.0549 21.195 11.0156 21.3582C11.0134 21.3746 11.0098 21.3903 11.0048 21.406ZM16.7674 23.0496C15.874 21.951 14.6578 20.7942 13.2278 19.7639C12.3733 19.1467 11.473 18.5997 10.5352 18.1279C10.5732 18.3137 10.5645 18.5064 10.51 18.6878L10.6922 19.4476C11.9529 20.0012 13.2434 20.698 14.4885 21.5591C15.5463 22.292 16.5655 23.1407 17.4995 24.1195C18.8044 22.7504 20.2799 21.6347 21.7877 20.7398C23.5599 19.6883 25.3787 18.9421 27.022 18.4464L26.4445 17.5892C26.3976 17.518 26.3288 17.4653 26.2491 17.4395C26.1684 17.4142 26.082 17.4167 26.0029 17.4468C24.4769 18.0326 23.0401 18.8481 21.7699 19.7636C20.3411 20.7942 19.1237 21.9507 18.2306 23.0493C18.1369 23.1645 18.0278 23.2521 17.9027 23.3113L17.8763 23.3226C17.7589 23.3745 17.6316 23.4017 17.4995 23.4017C17.3565 23.4017 17.221 23.3707 17.0947 23.31V23.3113C16.9681 23.2498 16.8562 23.1604 16.7671 23.0493L16.7674 23.0496ZM8.86727 17.4221C8.82735 17.421 8.78754 17.4268 8.74956 17.4395C8.67015 17.4658 8.60142 17.5184 8.55409 17.5892L7.9763 18.4467C8.04145 18.4663 8.10384 18.485 8.16377 18.5037C8.24307 18.5283 8.32113 18.553 8.39797 18.5777C8.36257 18.3968 8.37124 18.2096 8.42321 18.033C8.47517 17.8564 8.56881 17.6957 8.69578 17.5654L8.697 17.5645C8.74944 17.5118 8.80643 17.4642 8.86727 17.4221ZM4.78613 22.6966C4.9675 22.9916 5.15398 23.2832 5.34549 23.5713C5.47764 23.7715 5.60119 23.9604 5.72474 24.1609C10.084 23.3464 13.4272 25.0194 15.574 26.0934C16.4431 26.5283 17.107 26.8608 17.4998 26.8608C17.8925 26.8608 18.5549 26.5283 19.4252 26.0934C21.5729 25.0198 24.9152 23.3464 29.2745 24.1606C29.3983 23.9607 29.5219 23.7728 29.654 23.5713C29.8437 23.2821 30.049 22.9709 30.2134 22.6966C28.1976 22.7447 26.1996 23.1044 24.2756 23.6753C21.9165 24.3757 19.6693 25.3952 17.639 26.5543C17.5956 26.579 17.5468 26.5919 17.4971 26.5917C17.4475 26.5914 17.3988 26.5781 17.3556 26.553C15.3257 25.3952 13.0793 24.3757 10.7227 23.6763C8.80058 23.1044 6.80165 22.7447 4.78613 22.6966ZM11.6914 13.2608L17.3052 15.4403C17.3701 15.465 17.4337 15.4776 17.4988 15.4776C17.5634 15.4776 17.627 15.465 17.6919 15.4403L23.3057 13.2608L23.3081 16.8739C21.6095 17.5759 19.5565 17.9279 17.5001 17.9279V17.9267C15.4424 17.9267 13.3879 17.5756 11.692 16.8739L11.6914 13.2608ZM9.47549 17.8315H9.45982C9.32689 17.8333 9.19985 17.8882 9.10546 17.9846C9.01325 18.0795 8.9567 18.212 8.9567 18.3578C8.9567 18.5037 9.01418 18.6346 9.10669 18.7298L9.10546 18.7311C9.20168 18.8297 9.33199 18.8849 9.46775 18.8847C9.60352 18.8844 9.73364 18.8288 9.82954 18.7298C9.92174 18.6346 9.97952 18.5037 9.97952 18.3578C9.97952 18.212 9.92328 18.0795 9.83077 17.9846L9.82954 17.9858C9.73553 17.8889 9.60852 17.8336 9.47549 17.8315Z" fill="white"/>
<path d="M41 26.7372H45.3259V6.26285H41V26.7372ZM52.9623 23.1403V18.0632H60.7796V14.4664H52.9623V9.85969H62.1798V6.26285H48.6921V26.7372H62.3236V23.1403H52.9623ZM64.8969 26.7372H77.9951V23.002H69.2228V6.26285H64.8969V26.7372ZM81.3103 26.7372H85.6501V9.99802H91.7287V6.26285H75.2318V9.99802H81.3103V26.7372ZM95.3313 26.7787C96.2771 26.9262 97.1952 27 98.0854 27C99.736 27 101.155 26.7464 102.342 26.2391C103.524 25.7319 104.433 25.0079 105.059 24.0672C105.685 23.1265 106 22.0059 106 20.7055C106 19.1561 105.555 17.9065 104.665 16.9519C103.774 15.9974 102.439 15.2642 100.659 14.7569L99.1842 14.3281C98.5073 14.1252 97.9787 13.9177 97.6125 13.7055C97.2415 13.4934 96.9772 13.249 96.8196 12.9677C96.6573 12.6864 96.5831 12.3406 96.5831 11.9348C96.5831 11.1877 96.9031 10.6067 97.5475 10.1917C98.192 9.77668 99.2538 9.56917 100.728 9.56917C101.461 9.56917 102.189 9.61989 102.917 9.72134C103.645 9.82279 104.317 9.96574 104.943 10.1502V6.56719C104.312 6.39196 103.603 6.25362 102.815 6.15217C102.026 6.05073 101.21 6 100.367 6C98.5861 6 97.0885 6.24901 95.8784 6.74704C94.6682 7.24506 93.7595 7.95982 93.1521 8.88669C92.5447 9.81357 92.2433 10.9249 92.2433 12.2253C92.2433 15.1673 93.9125 17.1225 97.2647 18.0909L98.7391 18.5336C99.4903 18.7549 100.074 18.9809 100.496 19.2069C100.918 19.4282 101.215 19.691 101.396 19.9816C101.572 20.2721 101.66 20.6318 101.66 21.0652C101.66 22.6423 100.445 23.4308 98.0158 23.4308C97.1813 23.4308 96.3049 23.357 95.3869 23.2049C94.4689 23.0527 93.5926 22.8452 92.758 22.587V26.1561C93.523 26.4236 94.3854 26.6311 95.3313 26.7787Z" fill="#0C72DF"/>
<path d="M111.986 25.7892C112.9 25.9297 113.788 26 114.649 26C116.245 26 117.616 25.7585 118.764 25.2754C119.912 24.7923 120.79 24.1028 121.395 23.2069C122.001 22.3109 122.301 21.2437 122.301 20.0053C122.301 18.5296 121.871 17.3395 121.01 16.4304C120.149 15.5213 118.858 14.823 117.137 14.3399L115.711 13.9315C115.057 13.7383 114.55 13.5406 114.191 13.3386C113.833 13.1366 113.577 12.9038 113.425 12.6359C113.272 12.368 113.196 12.0386 113.196 11.6522C113.196 10.9407 113.505 10.3874 114.133 9.99209C114.756 9.59684 115.778 9.39921 117.204 9.39921C117.912 9.39921 118.62 9.44752 119.324 9.54414C120.024 9.64076 120.678 9.7769 121.279 9.95257V6.54018C120.669 6.3733 119.983 6.24155 119.221 6.14493C118.459 6.04831 117.67 6 116.854 6C115.133 6 113.689 6.23716 112.519 6.71146C111.349 7.18577 110.47 7.86649 109.883 8.74923C109.296 9.63197 109 10.6904 109 11.9289C109 14.7308 110.618 16.5929 113.855 17.5152L115.281 17.9368C116.007 18.1476 116.576 18.3628 116.984 18.578C117.388 18.7888 117.679 19.0391 117.849 19.3158C118.02 19.5924 118.105 19.935 118.105 20.3478C118.105 21.8498 116.93 22.6008 114.581 22.6008C113.774 22.6008 112.927 22.5305 112.039 22.3856C111.152 22.2407 110.305 22.043 109.498 21.7971V25.1963C110.242 25.451 111.071 25.6487 111.986 25.7892ZM127.869 25.1524C129.026 25.7189 130.505 26 132.307 26C134.091 26 135.557 25.7189 136.7 25.1524C137.844 24.5859 138.695 23.7075 139.256 22.5217C139.812 21.336 140.094 19.8076 140.094 17.9368V6.25033H135.992V18.3847C135.992 19.8603 135.692 20.9275 135.087 21.5863C134.481 22.2451 133.553 22.5744 132.307 22.5744C131.052 22.5744 130.124 22.2451 129.519 21.5863C128.913 20.9275 128.609 19.8603 128.609 18.3847V6.25033H124.426V17.9368C124.426 19.8076 124.708 21.336 125.282 22.5217C125.847 23.7075 126.712 24.5859 127.869 25.1524ZM145.097 23.6153C146.738 25.2051 149.123 26 152.252 26C153.014 26 153.767 25.9429 154.511 25.8287C155.255 25.7145 155.919 25.5564 156.502 25.3544V21.9157C155.13 22.3461 153.884 22.5613 152.763 22.5613C151.454 22.5613 150.382 22.3549 149.549 21.942C148.715 21.5292 148.083 20.8441 147.661 19.8823C147.235 18.9205 147.02 17.6206 147.02 15.9868C147.02 14.4058 147.235 13.1366 147.666 12.1748C148.096 11.213 148.737 10.5147 149.589 10.0843C150.441 9.65393 151.526 9.43874 152.844 9.43874C154.063 9.43874 155.282 9.58806 156.502 9.88669V6.44796C155.273 6.14932 153.942 6 152.507 6C149.333 6 146.895 6.83004 145.191 8.4989C143.488 10.1634 142.636 12.6755 142.636 16.0395C142.636 19.5002 143.456 22.0255 145.097 23.6153ZM160.079 23.6153C161.72 25.2051 164.105 26 167.234 26C167.996 26 168.749 25.9429 169.493 25.8287C170.238 25.7145 170.901 25.5564 171.484 25.3544V21.9157C170.112 22.3461 168.866 22.5613 167.745 22.5613C166.436 22.5613 165.365 22.3549 164.531 21.942C163.697 21.5292 163.065 20.8441 162.639 19.8823C162.218 18.9205 162.002 17.6206 162.002 15.9868C162.002 14.4058 162.218 13.1366 162.648 12.1748C163.078 11.213 163.719 10.5147 164.571 10.0843C165.423 9.65393 166.508 9.43874 167.826 9.43874C169.045 9.43874 170.265 9.58806 171.484 9.88669V6.44796C170.256 6.14932 168.924 6 167.49 6C164.316 6 161.877 6.83004 160.173 8.4989C158.47 10.1634 157.618 12.6755 157.618 16.0395C157.618 19.5002 158.438 22.0255 160.079 23.6153ZM177.751 22.3241V17.4888H185.309V14.0632H177.751V9.67589H186.668V6.25033H173.622V25.7497H186.802V22.3241H177.751ZM191.227 25.7892C192.142 25.9297 193.029 26 193.89 26C195.486 26 196.858 25.7585 198.005 25.2754C199.153 24.7923 200.027 24.1028 200.637 23.2069C201.242 22.3109 201.542 21.2437 201.542 20.0053C201.542 18.5296 201.112 17.3395 200.251 16.4304C199.391 15.5213 198.099 14.823 196.378 14.3399L194.952 13.9315C194.298 13.7383 193.791 13.5406 193.433 13.3386C193.074 13.1366 192.818 12.9038 192.666 12.6359C192.514 12.368 192.437 12.0386 192.437 11.6522C192.437 10.9407 192.747 10.3874 193.37 9.99209C193.997 9.59684 195.02 9.39921 196.445 9.39921C197.154 9.39921 197.862 9.44752 198.561 9.54414C199.265 9.64076 199.92 9.7769 200.52 9.95257V6.54018C199.911 6.3733 199.225 6.24155 198.463 6.14493C197.7 6.04831 196.911 6 196.096 6C194.374 6 192.931 6.23716 191.76 6.71146C190.586 7.18577 189.712 7.86649 189.124 8.74923C188.537 9.63197 188.241 10.6904 188.241 11.9289C188.241 14.7308 189.86 16.5929 193.096 17.5152L194.522 17.9368C195.248 18.1476 195.818 18.3628 196.221 18.578C196.629 18.7888 196.92 19.0391 197.091 19.3158C197.261 19.5924 197.346 19.935 197.346 20.3478C197.346 21.8498 196.172 22.6008 193.823 22.6008C193.016 22.6008 192.168 22.5305 191.281 22.3856C190.393 22.2407 189.546 22.043 188.739 21.7971V25.1963C189.483 25.451 190.312 25.6487 191.227 25.7892ZM205.685 25.7892C206.599 25.9297 207.487 26 208.348 26C209.943 26 211.315 25.7585 212.463 25.2754C213.611 24.7923 214.485 24.1028 215.094 23.2069C215.7 22.3109 216 21.2437 216 20.0053C216 18.5296 215.57 17.3395 214.709 16.4304C213.848 15.5213 212.557 14.823 210.836 14.3399L209.41 13.9315C208.755 13.7383 208.249 13.5406 207.89 13.3386C207.532 13.1366 207.276 12.9038 207.124 12.6359C206.971 12.368 206.895 12.0386 206.895 11.6522C206.895 10.9407 207.204 10.3874 207.832 9.99209C208.455 9.59684 209.477 9.39921 210.903 9.39921C211.611 9.39921 212.319 9.44752 213.023 9.54414C213.723 9.64076 214.377 9.7769 214.978 9.95257V6.54018C214.368 6.3733 213.682 6.24155 212.92 6.14493C212.158 6.04831 211.369 6 210.553 6C208.832 6 207.388 6.23716 206.218 6.71146C205.048 7.18577 204.169 7.86649 203.582 8.74923C202.995 9.63197 202.699 10.6904 202.699 11.9289C202.699 14.7308 204.317 16.5929 207.554 17.5152L208.98 17.9368C209.706 18.1476 210.275 18.3628 210.683 18.578C211.087 18.7888 211.378 19.0391 211.548 19.3158C211.719 19.5924 211.804 19.935 211.804 20.3478C211.804 21.8498 210.629 22.6008 208.28 22.6008C207.473 22.6008 206.626 22.5305 205.738 22.3856C204.851 22.2407 204.004 22.043 203.197 21.7971V25.1963C203.941 25.451 204.77 25.6487 205.685 25.7892Z" fill="white"/>
</svg>
